# xmcd
#
# Track frame offsets: 
#        185
#        16307
#        29660
#        46802
#        75290
#        93137
#        116687
#        141155
#        152742
#        167072
#        196297
#        208250
#        223155
#        235505
#        268562
#
# Disc length: 3796 seconds
#
# Revision: 7
# Processed by: cddbd v1.5.2PL0 Copyright (c) Steve Scherf et al.
# Submitted via: ExactAudioCopy v0.99pb5
#
DISCID=c50ed20f
DTITLE=Various Artist - The Blues Guitar Box [CD2]
DYEAR=1990
DGENRE=Blues
TTITLE0=John Mayall's Bluesbreakers (Feat. Mick Taylor) - Oh Pretty Wo
TTITLE0=man
TTITLE1=Magic Sam - All Your Love
TTITLE2=Albert Collins - Fake I.D.
TTITLE3=Muddy Waters (Feat. Mike Bloomfield) - Long Distance Call
TTITLE4=Buddy Guy - Worried Blues
TTITLE5=Howlin Wolf (Feat. Eric Clapton) - Little Red Rooster
TTITLE6=Johnny Winter - Don't Take Advantage of Me
TTITLE7=Anson Funderburgh and The Rockets - Meanstreak
TTITLE8=Lowell Fulson - Reconsider Baby
TTITLE9=Robert Cray, Albert Collins and Johnny Copeland - Blackjack
TTITLE10=Jeff Beck - Steelin'
TTITLE11=Freddie King - Going down
TTITLE12=Ike Turner - Prancin
TTITLE13=Albert King - I'll Play The Blues for You
TTITLE14=Bobby Radcliff - Stick Around
EXTD=YEAR: 1990
EXTT0=
EXTT1=
EXTT2=
EXTT3=
EXTT4=
EXTT5=
EXTT6=
EXTT7=
EXTT8=
EXTT9=
EXTT10=
EXTT11=
EXTT12=
EXTT13=
EXTT14=
PLAYORDER=
